# xmcd
#
# Track frame offsets: 
#        150
#        14452
#        27012
#        44087
#        56877
#        76240
#        88130
#        98755
#        114765
#        125890
#        138265
#        157530
#
# Disc length: 2326 seconds
#
# Revision: 4
# Processed by: cddbd v1.5PL3 Copyright (c) Steve Scherf et al.
# Submitted via: ExactAudioCopy v0.95a3
#
DISCID=9209140c
DTITLE=Chris Connor - Witchcraft
DYEAR=1959
DGENRE=Jazz
TTITLE0=Witchcraft
TTITLE1=I'll Never Be Free
TTITLE2=The Lady Sings The Blues
TTITLE3=Come Rain Or Come Shine
TTITLE4=When Sunny Gets Blue
TTITLE5=How Little We Know
TTITLE6=I Hear The Music Now
TTITLE7=Baltimore Oriole
TTITLE8=Just In Time
TTITLE9=Like A Woman
TTITLE10=Skyscraper Blues
TTITLE11=You Don't Know What Love Is
EXTD=YEAR: 1959
EXTT0=
EXTT1=
EXTT2=
EXTT3=
EXTT4=
EXTT5=
EXTT6=
EXTT7=
EXTT8=
EXTT9=
EXTT10=
EXTT11=
PLAYORDER=
